C:\Users\ma86\Desktop\PsoasStudy\Results\MuscGeometrySampling_R.mot														
version=1														
nRows=98														
nColumns=15														
inDegrees=yes														
endheader														
time	pelvis_tilt	pelvis_list	pelvis_rotation	pelvis_tx	pelvis_ty	pelvis_tz	hip_flexion_r	hip_adduction_r	hip_rotation_r	knee_angle_r	knee_angle_r_beta	ankle_angle_r	subtalar_angle_r	mtp_angle_r
0	0	0	0	0	0	0	-7.49770297	-12.16014425	-20.99291752	6.36419519	0	3.20511335	19.68305676	0
1	0	0	0	0	0	0	-3.60623548	3.10834411	13.91424178	26.81544215	0	-19.62978597	19.84830461	0
2	0	0	0	0	0	0	23.20105006	-29.53951386	-6.81081469	63.30764311	0	-9.79680756	1.90172133	0
3	0	0	0	0	0	0	42.62518193	5.59636236	-16.29283321	69.78285098	0	-2.06062785	17.20778758	0
4	0	0	0	0	0	0	-15.22309049	-27.83035963	7.87016396	23.50817859	0	-29.84447084	11.99915795	0
5	0	0	0	0	0	0	39.66091301	-12.57280565	18.72062285	9.248618	0	13.02761674	-9.28189527	0
6	0	0	0	0	0	0	-14.7590552	14.30407594	-5.36963683	87.85131573	0	-14.43620929	-10.10138698	0
7	0	0	0	0	0	0	4.26683571	-25.05606816	-8.03316061	50.67097195	0	23.50427758	-19.88381798	0
8	0	0	0	0	0	0	-18.81019084	-1.3252924	6.04730464	8.95668039	0	21.87507759	9.73856448	0
9	0	0	0	0	0	0	31.19579829	-9.93955318	18.33640948	84.26728785	0	-9.39302493	-0.14659678	0
10	0	0	0	0	0	0	-7.40507711	-16.6907213	12.04876804	60.47013943	0	22.73740406	15.7280167	0
11	0	0	0	0	0	0	55.76943194	12.2200386	12.61459989	78.59427862	0	-38.86153525	17.55759483	0
12	0	0	0	0	0	0	6.31673378	-19.48887697	-19.53761248	51.10872611	0	-10.69986478	11.65451014	0
13	0	0	0	0	0	0	-0.29430496	9.55130704	12.21176255	86.48989035	0	4.82118985	-8.18958356	0
14	0	0	0	0	0	0	35.79204126	6.97379834	15.33806083	65.16487853	0	-16.98495162	12.06066331	0
15	0	0	0	0	0	0	23.5010072	1.62111764	-5.92749599	52.8417567	0	-9.62657419	17.80151312	0
16	0	0	0	0	0	0	12.75025489	6.48378484	18.18623835	84.19717393	0	26.34008979	-0.22030692	0
17	0	0	0	0	0	0	16.76873741	3.36864552	14.85596583	52.68062989	0	-39.38554135	-17.55435798	0
18	0	0	0	0	0	0	-15.81627919	-24.11282382	11.89852741	27.16157234	0	-9.56721011	-4.53095248	0
19	0	0	0	0	0	0	-9.04113753	8.54005131	-2.45548054	4.83238621	0	-11.81459082	9.99762879	0
20	0	0	0	0	0	0	31.43233029	6.44237664	-5.30484828	84.79987023	0	-32.44159083	-14.58391776	0
21	0	0	0	0	0	0	14.14822578	-22.60927469	-11.67544656	1.29423892	0	-33.75894266	19.54112358	0
22	0	0	0	0	0	0	39.00572581	13.98085317	14.16459633	11.7322046	0	-17.80627511	5.42393075	0
23	0	0	0	0	0	0	13.18352161	-19.83173921	-28.23214475	37.87031647	0	-1.0584077	15.00489844	0
24	0	0	0	0	0	0	-10.23298959	5.21194613	-26.61724102	15.80529116	0	-27.75915289	19.58128832	0
25	0	0	0	0	0	0	26.47304621	1.17463619	19.21963932	7.31452244	0	-24.41511141	-5.76272447	0
26	0	0	0	0	0	0	32.54797433	-18.38205156	9.07275544	87.21952393	0	-39.33756405	6.76919798	0
27	0	0	0	0	0	0	47.05781091	-24.68220578	-3.72289286	39.11627865	0	29.60878453	-15.5634507	0
28	0	0	0	0	0	0	-0.93228701	13.01166216	-25.87242712	39.74103255	0	24.08387008	-6.85770649	0
29	0	0	0	0	0	0	18.42216382	7.44694375	-24.47775679	56.92774515	0	-13.46711326	-7.88968642	0
30	0	0	0	0	0	0	42.51782028	10.20813566	-16.65138022	72.28086479	0	-21.6019344	-4.0786272	0
31	0	0	0	0	0	0	20.9093196	-22.25567868	5.65584075	27.79707212	0	29.16102499	5.73575821	0
32	0	0	0	0	0	0	52.31171376	-6.95350236	14.06652549	70.38562795	0	4.03880597	8.7519692	0
33	0	0	0	0	0	0	40.10727949	-25.23589552	-23.79769554	13.82394395	0	-3.54214314	-18.67493814	0
34	0	0	0	0	0	0	-12.84503321	-25.80307676	-12.8674579	73.2474648	0	25.24195255	8.54794051	0
35	0	0	0	0	0	0	48.90081791	0.79724061	-22.6238521	29.87320295	0	-39.86245378	-5.48059833	0
36	0	0	0	0	0	0	-12.62090306	13.51117451	-9.03332627	67.37360585	0	1.97223041	10.46401056	0
37	0	0	0	0	0	0	-13.96701547	13.52476209	14.82959968	34.63163124	0	7.84371388	16.18222716	0
38	0	0	0	0	0	0	-5.45594869	-25.63762956	14.31504072	56.56065614	0	-37.99661424	8.25026278	0
39	0	0	0	0	0	0	59.36483138	7.60755833	-15.72510951	45.63344237	0	17.54010797	-10.94773805	0
40	0	0	0	0	0	0	42.77807659	-3.82848129	-14.03492493	19.01164291	0	28.70143204	5.09291569	0
41	0	0	0	0	0	0	22.31928041	-24.5585074	-5.4556259	71.358037	0	0.76602723	2.31941076	0
42	0	0	0	0	0	0	-6.57048468	-15.92955607	-23.68443005	35.26955643	0	-1.90526349	-4.33829683	0
43	0	0	0	0	0	0	36.57741819	-29.25891539	9.27976154	20.4656396	0	8.55378666	-21.61172227	0
44	0	0	0	0	0	0	0.51080336	-1.10473831	14.13466696	79.44338704	0	16.48013036	-16.59492594	0
45	0	0	0	0	0	0	10.15161195	-11.14024259	-11.86290576	15.92836862	0	-7.39247365	14.89903257	0
46	0	0	0	0	0	0	21.57801974	13.76285653	19.83487818	1.20010477	0	-13.03623511	1.56612697	0
47	0	0	0	0	0	0	-19.68575797	2.68260049	-24.94069053	67.75538226	0	-38.74497076	-9.7223221	0
48	0	0	0	0	0	0	-2.17841854	-13.56387046	-20.29927298	45.34555996	0	-2.39256486	-18.44180394	0
49	0	0	0	0	0	0	37.98418387	5.50711593	8.89676585	33.62922639	0	-21.76552921	-22.36602617	0
50	0	0	0	0	0	0	58.32673448	-25.22424727	-17.64124215	57.266131	0	-16.19835998	-24.88327754	0
51	0	0	0	0	0	0	55.86225365	-26.28537845	16.08982101	39.66943271	0	-3.9405682	-7.99774107	0
52	0	0	0	0	0	0	49.66593527	-9.90044464	12.66839006	3.31056324	0	23.24344353	12.76135053	0
53	0	0	0	0	0	0	8.82753592	13.89086213	11.72174077	83.98117125	0	4.01080198	-6.20078356	0
54	0	0	0	0	0	0	24.84768826	-10.18581633	-11.98221427	52.36780265	0	7.39504276	15.60787481	0
55	0	0	0	0	0	0	2.07504434	10.40597696	15.88330955	57.53745827	0	2.34439814	-2.75023234	0
56	0	0	0	0	0	0	58.92327302	-19.39349415	-24.8008201	49.68845001	0	-16.93460715	-16.43865115	0
57	0	0	0	0	0	0	15.84217056	8.80461696	15.20607501	62.51566692	0	0.38145831	-14.98505697	0
58	0	0	0	0	0	0	25.43876814	7.51215901	-14.83214047	22.29993256	0	-15.97943255	-9.89766307	0
59	0	0	0	0	0	0	-0.39216644	-17.43799803	-10.41098134	64.79388396	0	17.22581875	-12.14504107	0
60	0	0	0	0	0	0	-9.41313406	-10.22009109	-6.46178329	14.48738109	0	-30.34334676	14.44648704	0
61	0	0	0	0	0	0	30.5271521	-8.1398423	-16.63592579	42.57056613	0	-13.53468467	-19.35044437	0
62	0	0	0	0	0	0	43.26116677	2.10727253	-22.46417816	6.1927669	0	-24.74578702	-24.35175142	0
63	0	0	0	0	0	0	9.56725875	-5.18782489	-7.52991531	65.34623076	0	28.10086066	-15.11669204	0
64	0	0	0	0	0	0	26.37066218	0.22258007	-1.00570956	86.96851101	0	27.31558145	8.27422118	0
65	0	0	0	0	0	0	26.97914861	-28.3309546	11.13169943	5.60118095	0	-1.3672813	-17.69266886	0
66	0	0	0	0	0	0	54.00928809	11.17837215	-18.15050936	5.74446399	0	-11.50360265	6.88479565	0
67	0	0	0	0	0	0	45.02120013	-21.44752833	-17.18790893	59.98420513	0	9.21369985	19.60615255	0
68	0	0	0	0	0	0	35.71443585	-23.34975201	-18.62174416	66.04671116	0	10.5004456	19.06692608	0
69	0	0	0	0	0	0	46.80411352	12.59052136	-16.80325202	77.77852465	0	-32.26138742	-23.26637493	0
70	0	0	0	0	0	0	-18.31980962	-24.30713548	-24.14318778	41.8979719	0	-0.20263863	-2.55977062	0
71	0	0	0	0	0	0	57.74797872	-19.57780834	-17.83738509	80.18861003	0	-22.69277279	5.6377031	0
72	0	0	0	0	0	0	-17.78312663	-5.32368808	-18.35366218	10.95552625	0	29.14074451	-16.77083432	0
73	0	0	0	0	0	0	11.20939347	4.72205821	-12.27345551	64.46438413	0	27.8505171	-15.27331889	0
74	0	0	0	0	0	0	21.1848819	11.58034013	-12.46082965	69.49252319	0	-34.10358897	1.40824669	0
75	0	0	0	0	0	0	15.44656265	-22.16173717	-28.89097677	43.6332806	0	-7.55244619	-11.60744736	0
76	0	0	0	0	0	0	12.62183907	14.39707291	1.80925392	88.7781089	0	15.66104078	12.9455764	0
77	0	0	0	0	0	0	-1.56671678	13.19761214	-27.27264318	41.45482871	0	-10.11685341	0.02391378	0
78	0	0	0	0	0	0	48.14113569	3.70090288	-21.36564407	80.85129426	0	-36.93906326	-3.96583419	0
79	0	0	0	0	0	0	10.63544474	7.74089105	-14.88393227	82.31152805	0	18.79507681	-7.47666683	0
80	0	0	0	0	0	0	-5.39580657	-20.23444502	3.23370068	34.84386234	0	-8.76650648	-13.50477634	0
81	0	0	0	0	0	0	39.51807384	-26.20500135	-19.05611307	25.33758285	0	-12.50900599	-22.8881723	0
82	0	0	0	0	0	0	-19.90066038	-20.05273373	-1.7873992	63.90000036	0	17.99200883	-13.22326789	0
83	0	0	0	0	0	0	-19.49720473	-21.52202569	-23.37502012	4.63587007	0	-25.31550535	4.64405425	0
84	0	0	0	0	0	0	20.79866675	0.24702651	-26.32978019	89.60898213	0	-12.47441471	2.37841464	0
85	0	0	0	0	0	0	31.35280312	-9.60266367	-18.54849841	58.34530905	0	-12.68525281	-10.05983014	0
86	0	0	0	0	0	0	-1.44165271	0.59315327	5.83969876	42.05275007	0	-10.79836804	-16.2674927	0
87	0	0	0	0	0	0	43.80826823	-7.01188078	-15.27872174	62.56253741	0	-14.75079588	15.8279422	0
88	0	0	0	0	0	0	24.62115384	14.16690021	10.39046184	57.3494417	0	-37.27770053	-8.78780094	0
89	0	0	0	0	0	0	7.26761019	-15.21750843	-25.41591757	4.47015858	0	-38.20265464	1.63380906	0
90	0	0	0	0	0	0	-1.71122457	-20.3672759	4.02419472	0.49573143	0	-17.21051341	-7.3191248	0
91	0	0	0	0	0	0	10.34193541	5.65133055	1.23881822	27.07691392	0	5.62488433	15.97621414	0
92	0	0	0	0	0	0	6.76878716	-9.12067454	18.92560084	23.14618789	0	-34.8248179	-15.52111381	0
93	0	0	0	0	0	0	34.17543799	5.7341278	16.59065553	6.44486773	0	-18.60102453	17.39096232	0
94	0	0	0	0	0	0	49.84838739	-20.7663545	6.24190699	88.9220236	0	25.49499707	13.76420221	0
95	0	0	0	0	0	0	12.2773577	10.42949853	-26.65565122	0.34827642	0	-4.73168372	-0.49040223	0
96	0	0	0	0	0	0	-12.74345635	-17.76364321	-23.82086581	64.2994514	0	23.96306304	-2.33993364	0
97	0	0	0	0	0	0	-4.28998745	-18.10120394	4.67112511	40.43113936	0	19.80783373	-0.8044342	0
